<?xml version="1.0" standalone="no"?>
<!DOCTYPE svg PUBLIC "-//W3C//DTD SVG 20010904//EN"
 "http://www.w3.org/TR/2001/REC-SVG-20010904/DTD/svg10.dtd">
<svg version="1.0" xmlns="http://www.w3.org/2000/svg"
 width="168.000000pt" height="168.000000pt" viewBox="0 0 168.000000 168.000000"
 preserveAspectRatio="xMidYMid meet">
<metadata>
Created by potrace 1.14, written by Peter Selinger 2001-2017
</metadata>
<g transform="translate(0.000000,168.000000) scale(0.100000,-0.100000)"
fill="#000000" stroke="none">
<path d="M228 1529 c-17 -9 -18 -50 -18 -623 0 -475 3 -616 13 -628 6 -9 62
-44 122 -79 61 -34 150 -86 198 -116 49 -30 100 -53 115 -53 15 0 54 16 87 36
33 20 213 126 400 236 187 110 346 207 353 216 9 12 12 103 12 377 0 302 -2
364 -15 382 -8 11 -106 74 -217 139 l-203 119 -415 2 c-276 2 -421 -1 -432 -8z
m780 -269 c1 -96 0 -185 -3 -197 -6 -24 -43 -50 -217 -151 -58 -34 -117 -62
-130 -62 -27 0 -290 149 -328 186 -25 24 -25 28 -28 200 -2 126 0 179 9 190
10 12 65 14 353 12 l341 -3 3 -175z m234 65 c65 -38 114 -73 110 -77 -4 -4
-60 -39 -125 -77 l-117 -70 0 150 c0 83 3 148 8 146 4 -2 60 -34 124 -72z
m174 -212 c4 -26 4 -155 1 -287 -5 -234 -6 -239 -29 -261 -12 -13 -169 -109
-348 -214 l-325 -191 -3 286 c-1 166 2 292 7 302 8 15 665 410 683 412 4 0 10
-21 14 -47z m-956 -273 c73 -44 137 -85 142 -92 9 -15 11 -588 2 -588 -12 0
-279 163 -291 178 -19 23 -19 582 0 582 7 0 73 -36 147 -80z"/>
</g>
</svg>
